P1
#gb2312 7 80 ю
8 8
0 0 0 0 0 0 0 0
0 0 0 0 0 0 0 0
0 1 0 0 1 1 0 0
0 1 0 1 0 0 1 0
0 1 1 1 0 0 1 0
0 1 0 1 0 0 1 0
0 1 0 0 1 1 0 0
0 0 0 0 0 0 0 0
