P1
#gb2312 26 93 糊
8 8
1 0 0 1 0 1 1 0
0 1 1 1 1 0 1 0
1 1 0 1 0 1 1 0
0 1 1 1 1 0 1 0
1 1 1 0 1 1 1 0
1 1 1 1 1 0 1 0
0 1 0 1 0 1 1 0
0 0 0 0 0 0 0 0
