P1
#gb2312 77 13 憝
8 8
1 1 0 0 0 0 0 0
1 1 0 1 1 1 0 0
1 0 0 1 1 0 0 0
0 1 0 0 1 0 0 0
1 1 0 0 0 1 0 0
0 1 0 0 0 0 0 0
1 1 0 1 0 1 0 0
0 1 1 1 1 0 1 0
