P1
#gb2312 38 5 匹
8 8
1 1 1 1 1 1 1 0
1 0 1 0 1 0 0 0
1 0 1 0 1 0 0 0
1 0 1 0 1 0 1 0
1 1 0 0 1 1 1 0
1 0 0 0 0 0 0 0
1 1 1 1 1 1 1 0
0 0 0 0 0 0 0 0
