P1
#gb2312 30 58 沮
8 8
0 1 0 0 0 0 1 0
0 0 0 1 1 1 1 0
1 0 1 1 0 0 1 0
0 1 0 1 1 1 1 0
0 1 0 1 0 0 1 0
1 0 0 1 1 1 1 0
1 0 0 1 0 0 1 0
0 1 0 1 1 1 1 0
