P1
#gb2312 75 6 毽
8 8
0 0 1 0 1 1 1 0
1 1 0 1 1 1 1 0
0 1 1 0 1 1 1 0
1 1 0 1 0 1 0 0
0 1 1 0 1 1 1 0
1 1 0 1 0 1 0 0
0 1 1 1 1 1 1 0
0 0 0 0 0 0 0 0
