P1
#gb2312 56 85 仵
8 8
0 1 0 0 1 0 0 0
0 1 0 0 1 1 1 1
1 1 0 1 0 1 0 0
0 1 0 0 0 1 0 0
0 1 0 1 1 1 1 1
0 1 0 0 0 1 0 0
0 1 0 0 0 1 0 0
0 0 0 0 0 0 0 0
