P1
#gb2312 34 19 鲁
8 8
0 0 1 0 0 0 0 0
0 1 0 1 1 0 0 0
0 1 1 1 0 1 0 0
0 1 1 1 1 1 0 0
1 1 1 1 1 1 1 1
0 1 0 0 0 1 0 0
0 1 1 1 1 1 0 0
0 0 1 1 1 0 0 0
