P1
#gb2312 39 8 迁
8 8
1 0 0 0 0 1 1 0
0 1 0 1 1 0 0 0
0 0 0 0 1 0 0 0
1 1 0 1 1 1 1 0
0 1 0 0 1 0 0 0
0 1 0 0 1 0 0 0
1 0 1 1 1 1 1 0
0 0 0 0 0 0 0 0
