P1
#gb2312 39 28 羌
8 8
0 0 1 0 0 1 0 0
1 1 1 1 1 1 1 0
0 1 1 1 1 1 0 0
0 0 0 1 0 0 0 0
1 1 1 1 1 1 1 0
0 0 1 0 1 0 0 0
1 1 0 0 1 1 1 0
0 0 0 0 0 0 0 0
