P1
#gb2312 2 54 ⒅
8 8
0 1 0 0 0 1 0 0
1 0 0 0 1 0 1 0
1 1 0 1 0 1 1 0
1 1 0 0 1 0 1 0
1 1 0 1 0 1 1 0
1 0 0 0 1 0 1 0
0 1 0 0 0 1 0 0
0 0 0 0 0 0 0 0
