P1
#gb2312 48 56 胸
8 8
0 0 1 0 0 0 0 0
1 1 1 1 1 1 1 0
1 0 1 0 0 1 1 0
1 1 1 1 1 0 1 0
1 0 1 1 0 1 1 0
1 1 1 1 1 1 1 0
1 0 1 1 1 0 1 0
1 0 1 0 0 1 1 0
