P1
#gb2312 82 89 蝙
8 8
0 1 1 1 1 1 1 0
1 1 1 1 0 1 0 0
1 0 1 1 1 1 0 0
1 1 1 1 0 0 0 0
0 1 0 1 1 1 1 0
0 1 1 0 1 1 1 0
1 1 0 0 1 0 1 0
0 0 0 0 0 0 0 0
