P1
#gb2312 6 48 π
8 8
0 0 0 0 0 0 0 0
0 0 0 0 0 0 0 0
0 1 1 1 1 1 1 0
0 0 0 1 0 1 0 0
0 0 0 1 0 1 0 0
0 0 1 0 0 1 0 0
0 1 0 0 0 1 1 0
0 0 0 0 0 0 0 0
