P1
#gb2312 27 67 汇
8 8
1 0 0 1 1 1 1 0
0 1 0 1 0 0 0 0
0 0 0 1 0 0 0 0
1 0 0 1 0 0 0 0
0 0 1 1 0 0 0 0
0 1 0 1 0 0 0 0
1 0 0 1 1 1 1 0
0 0 0 0 0 0 0 0
