P1
#gb2312 50 18 也
8 8
0 0 0 1 0 0 0 0
0 1 0 1 1 1 0 0
0 1 1 1 0 1 0 0
1 1 0 1 0 1 0 0
0 1 0 1 0 0 0 0
0 1 0 0 0 0 1 0
0 0 1 1 1 1 1 0
0 0 0 0 0 0 0 0
