P1
#gb2312 4 66 も
8 8
0 0 0 1 0 0 0 0
0 1 1 1 1 1 0 0
0 0 1 0 0 0 0 0
0 1 1 1 1 1 0 0
0 0 1 0 0 0 1 0
0 0 1 0 0 0 1 0
0 0 0 1 1 1 0 0
0 0 0 0 0 0 0 0
