P1
#gb2312 45 85 王
8 8
0 0 0 0 0 0 1 0
0 0 1 1 1 1 0 0
0 0 0 1 0 0 0 0
0 0 0 1 0 0 1 0
0 0 1 1 1 1 0 0
0 0 0 1 0 0 0 0
0 0 0 1 0 0 0 0
0 1 1 1 1 1 1 0
