P1
#gb2312 47 56 县
8 8
0 1 1 1 1 1 0 0
0 1 0 0 0 1 0 0
0 1 1 1 1 1 0 0
0 1 0 0 0 1 0 0
1 1 1 1 1 1 1 0
0 0 1 0 1 0 0 0
0 1 1 1 0 1 0 0
0 0 0 0 0 0 0 0
