P1
#gb2312 5 35 ッ
8 8
0 0 0 0 0 0 0 0
0 0 0 1 0 1 0 0
0 0 1 0 0 1 0 0
0 0 0 0 1 0 0 0
0 0 0 1 0 0 0 0
0 0 0 0 0 0 0 0
0 0 0 0 0 0 0 0
0 0 0 0 0 0 0 0
