P1
#gb2312 32 3 溃
8 8
1 0 0 0 1 0 0 0
0 0 1 1 1 1 1 0
1 0 1 0 1 0 1 0
0 1 1 1 1 1 1 0
1 0 0 1 1 1 0 0
1 0 0 1 1 1 0 0
1 0 1 1 0 1 1 0
0 0 0 0 0 0 0 0
