P1
#gb2312 32 42 朗
8 8
0 1 0 0 1 1 1 0
1 1 1 0 1 0 1 0
1 0 1 0 1 1 1 0
1 1 1 0 1 0 1 0
1 0 0 0 1 1 1 0
1 0 1 0 1 0 1 0
1 1 0 1 0 1 1 0
0 0 0 0 0 0 0 0
