P1
#gb2312 32 83 荔
8 8
0 0 1 0 0 1 0 0
1 1 1 1 1 1 1 0
0 0 1 0 0 1 0 0
0 1 0 0 1 0 0 0
1 1 1 1 1 1 1 0
0 1 0 0 1 0 1 0
1 0 1 1 0 1 1 0
0 0 0 0 0 0 0 0
